<svg xmlns="http://www.w3.org/2000/svg" viewBox="0 0 202.59 25"><g data-name="Layer 2"><g data-name="Layer 1"><path fill="white" d="M199.43 5.78a3.16 3.16 0 1 1-3.15 3.16 3.15 3.15 0 0 1 3.15-3.16m0 5.64a2.39 2.39 0 0 0 2.43-2.48 2.43 2.43 0 1 0-4.86 0 2.39 2.39 0 0 0 2.43 2.48m-1.23-4.24h1.35c.9 0 1.36.29 1.36 1a.9.9 0 0 1-.92.95l.95 1.56h-.78l-.9-1.56h-.38v1.56h-.68Zm1.28 1.5c.36 0 .7-.06.7-.54s-.4-.48-.7-.48h-.6v1Z" class="cls-1"/><path fill="white" d="M106.81 8.62h2.28c.86 0 1.9 0 2.42.77a2.38 2.38 0 0 1 .43 1.29 1.88 1.88 0 0 1-1.76 2.11 8.89 8.89 0 0 1-1.23.09h-2.14Zm-3.61-2.53V20h3.61v-4.54h2.38c2.09 0 4.13-.14 5.42-2a4.67 4.67 0 0 0 .85-2.78 4.89 4.89 0 0 0-.81-2.83 4.19 4.19 0 0 0-.61-.71 5.41 5.41 0 0 0-3.71-1Zm16.11 9.18a72.1 72.1 0 0 0 1.09-3.44c.24-.81.49-1.62.67-2.44l1.9 5.88ZM123 6.09h-3.71L114 20h3.8l.71-2.21h5.28l.71 2.21h3.8Zm10 0 3 5.12c.71 1.25 1.48 2.54 2.14 3.83L138 6.09h3.41V20h-3.51l-2.66-4.41c-.48-.72-.9-1.43-1.29-2.15s-.85-1.49-1.22-2.21l.17 8.77h-3.47V6.09Zm20.77 0v2.73h-3.71v11.2h-3.61V8.82h-3.7V6.09h11.02zm10.74 7.27a4.17 4.17 0 0 1-1.09 3.06 3.44 3.44 0 0 1-2.42 1.06 3.24 3.24 0 0 1-2.43-1 4.87 4.87 0 0 1-1.18-3.54 4.29 4.29 0 0 1 1.94-4 3.29 3.29 0 0 1 1.57-.38 3.37 3.37 0 0 1 2.76 1.28 5.46 5.46 0 0 1 .9 3.5m.91 5.6a7.59 7.59 0 0 0 2.7-5.84A8.27 8.27 0 0 0 166 7.58a7.08 7.08 0 0 0-5.14-2 6.56 6.56 0 0 0-5.69 2.88 8.11 8.11 0 0 0-1.35 4.54 7.9 7.9 0 0 0 2 5.46 7 7 0 0 0 5 2 6.81 6.81 0 0 0 4.6-1.46m7.93-12.91 3.09 5.12a55.55 55.55 0 0 1 2.14 3.83l-.14-8.95h3.42V20h-3.52l-2.66-4.41c-.43-.72-.91-1.43-1.29-2.15s-.8-1.49-1.23-2.21l.14 8.77h-3.47V6.09Zm21.44 0v2.68h-6.99v2.53h6.56v2.63h-6.56v3.36h7.66v2.73h-11.23V6.09h10.56z" class="cls-2"/><path fill="white" d="M7.02 13.06 0 6.04v14.04l7.02-7.02zm25.01-.31-4.58-6.69h3.23l3.05 5.01 3.12-5.01h2.89l-4.52 6.69 4.96 7.35h-3.2l-3.46-5.5-3.48 5.5h-3.08l5.07-7.35zm13.52-6.69H48v2.18a4.27 4.27 0 0 1 3.66-2.51 7.35 7.35 0 0 1 1.71.19v2.32A3.69 3.69 0 0 0 52 8c-2.32 0-3.83 2.2-3.83 5.73v6.37h-2.62ZM58.6 2.92h-2.92V0h2.92Zm-2.75 3.14h2.59v14h-2.59Z" class="cls-1"/><path fill="white" d="M39.95 11.63h2.92v2.92h-2.92zm30.28-3.48h-3.72v7.69a2.22 2.22 0 0 0 2.17 2.5 3.24 3.24 0 0 0 1.76-.49v2.2a8.22 8.22 0 0 1-2.2.38c-2.67 0-4.32-1.26-4.32-4.07V8.15h-3.17V6.06h3.17V2.81L66.51 2v4.06h3.72Zm13.1 11.37a10.7 10.7 0 0 1-4.43.91c-5 0-7.27-3-7.27-7.6 0-4.15 2.62-7.1 6.58-7.1 4.68 0 6.2 3.41 6.2 7.93h-10A4.6 4.6 0 0 0 79 18.34a8.3 8.3 0 0 0 4.32-1.4v2.58m-1.68-7.79c0-2.14-1.26-3.91-3.49-3.91-2.54 0-3.58 2.09-3.78 3.91Zm-61.37 7.95a11.91 11.91 0 0 0 0-13.24l-6.62 6.62ZM17 3.12a12 12 0 0 0-13.25 0l6.63 6.63ZM3.71 23A12 12 0 0 0 17 23l-6.62-6.63Z" class="cls-1"/></g></g></svg>
